# Blender v2.90.1 OBJ File: 'tower.blend'
# www.blender.org
mtllib enemy_two.mtl
o Cube.008
v -0.500000 0.248892 0.500000
v -0.500000 0.750356 0.500000
v -0.500000 0.247937 -0.500000
v -0.500000 0.750178 -0.500000
v 0.500000 0.750356 0.500000
v 0.500000 0.750356 -0.500000
v -0.500000 0.000000 0.000000
v -0.500000 0.500000 0.500000
v -0.500000 1.000000 0.000000
v -0.500000 0.500000 -0.500000
v 0.000000 0.000000 -0.500000
v 0.000000 1.000000 -0.500000
v 0.500000 0.500000 -0.500000
v 0.500000 0.000000 0.000000
v 0.500000 1.000000 0.000000
v 0.500000 0.500000 0.500000
v 0.000000 0.000000 0.500000
v 0.000000 1.000000 0.500000
v 0.000000 1.000000 0.000000
v 0.000000 0.000000 0.000000
v 0.000000 0.500000 0.500000
v 0.500000 0.500000 0.000000
v 0.000000 0.500000 -0.500000
v -0.500000 0.500000 0.000000
v -0.500000 0.750000 0.500000
v -0.500000 0.750356 -0.250000
v 0.250000 0.750356 -0.500000
v 0.500000 0.250276 -0.500000
v 0.500000 0.250551 -0.250000
v 0.500000 0.750356 0.250000
v 0.500000 0.249103 0.500000
v -0.250000 0.750356 0.500000
v -0.500000 0.750178 0.250000
v 0.250000 0.250551 -0.500000
v -0.250000 0.750356 -0.500000
v 0.500000 0.750000 -0.500000
v 0.500000 0.750356 -0.250000
v 0.500000 0.750000 0.500000
v 0.250000 0.750356 0.500000
v 0.000000 1.000000 0.250000
v 0.000000 1.000000 -0.250000
v 0.250000 1.000000 0.000000
v -0.250000 1.000000 0.000000
v 0.000000 0.000000 0.250000
v 0.000000 0.000000 -0.250000
v -0.250000 0.000000 0.000000
v 0.250000 0.000000 0.000000
v -0.250000 0.500000 0.500000
v 0.250000 0.500000 0.500000
v 0.000000 0.250000 0.500000
v 0.000000 0.750000 0.500000
v 0.500000 0.500000 0.250000
v 0.500000 0.500000 -0.250000
v 0.500000 0.250000 0.000000
v 0.500000 0.750000 0.000000
v 0.250000 0.500000 -0.500000
v -0.250000 0.500000 -0.500000
v 0.000000 0.250000 -0.500000
v 0.000000 0.750000 -0.500000
v -0.500000 0.500000 -0.250000
v -0.500000 0.500000 0.250000
v -0.500000 0.250000 0.000000
v -0.500000 0.750000 0.000000
v -0.500000 0.248892 0.250000
v -0.500000 0.247937 -0.250000
v -0.250000 0.750000 -0.500000
v -0.250000 0.247937 -0.500000
v 0.250000 0.250000 -0.500000
v 0.500000 0.750000 -0.250000
v 0.500000 0.250000 -0.250000
v 0.500000 0.249103 0.250000
v 0.250000 0.750000 0.500000
v 0.250000 0.249103 0.500000
v -0.250000 0.248892 0.500000
v 0.250000 0.250551 -0.250000
v -0.250000 0.245875 -0.250000
v -0.250000 0.247783 0.250000
v -0.250000 0.750356 -0.250000
v 0.250000 0.750356 -0.250000
v 0.250000 0.750356 0.250000
v -0.250000 0.750356 0.250000
v 0.250000 0.248207 0.250000
v -0.250000 0.750000 0.500000
v 0.500000 0.750000 0.250000
v 0.250000 0.750000 -0.500000
v -0.500000 0.750000 -0.250000
vt 0.562500 0.187500
vt 0.625000 0.187500
vt 0.562500 0.250000
vt 0.562500 0.437500
vt 0.625000 0.437500
vt 0.625000 0.500000
vt 0.562500 0.500000
vt 0.562500 0.687500
vt 0.625000 0.687500
vt 0.625000 0.750000
vt 0.562500 0.750000
vt 0.562500 0.937500
vt 0.625000 0.937500
vt 0.625000 1.000000
vt 0.562500 1.000000
vt 0.312500 0.687500
vt 0.375000 0.687500
vt 0.375000 0.750000
vt 0.312500 0.750000
vt 0.812500 0.687500
vt 0.875000 0.687500
vt 0.875000 0.750000
vt 0.812500 0.750000
vt 0.687500 0.687500
vt 0.750000 0.687500
vt 0.750000 0.750000
vt 0.687500 0.750000
vt 0.687500 0.562500
vt 0.750000 0.562500
vt 0.750000 0.625000
vt 0.687500 0.625000
vt 0.812500 0.562500
vt 0.875000 0.562500
vt 0.875000 0.625000
vt 0.812500 0.625000
vt 0.187500 0.687500
vt 0.250000 0.687500
vt 0.250000 0.750000
vt 0.187500 0.750000
vt 0.187500 0.562500
vt 0.250000 0.562500
vt 0.250000 0.625000
vt 0.187500 0.625000
vt 0.312500 0.562500
vt 0.375000 0.562500
vt 0.375000 0.625000
vt 0.312500 0.625000
vt 0.437500 0.937500
vt 0.500000 0.937500
vt 0.500000 1.000000
vt 0.437500 1.000000
vt 0.437500 0.812500
vt 0.500000 0.812500
vt 0.500000 0.875000
vt 0.437500 0.875000
vt 0.562500 0.812500
vt 0.625000 0.812500
vt 0.625000 0.875000
vt 0.562500 0.875000
vt 0.437500 0.687500
vt 0.500000 0.687500
vt 0.500000 0.750000
vt 0.437500 0.750000
vt 0.437500 0.562500
vt 0.500000 0.562500
vt 0.500000 0.625000
vt 0.437500 0.625000
vt 0.562500 0.562500
vt 0.625000 0.562500
vt 0.625000 0.625000
vt 0.562500 0.625000
vt 0.437500 0.437500
vt 0.500000 0.437500
vt 0.500000 0.500000
vt 0.437500 0.500000
vt 0.437500 0.312500
vt 0.500000 0.312500
vt 0.500000 0.375000
vt 0.437500 0.375000
vt 0.562500 0.312500
vt 0.625000 0.312500
vt 0.625000 0.375000
vt 0.562500 0.375000
vt 0.437500 0.187500
vt 0.500000 0.187500
vt 0.500000 0.250000
vt 0.437500 0.250000
vt 0.437500 0.062500
vt 0.500000 0.062500
vt 0.500000 0.125000
vt 0.437500 0.125000
vt 0.625000 0.062500
vt 0.625000 0.125000
vt 0.562500 0.125000
vt 0.562500 0.062500
vt 0.500000 0.000000
vt 0.562500 0.000000
vt 0.625000 0.000000
vt 0.375000 0.125000
vt 0.437500 0.000000
vt 0.375000 0.187500
vt 0.625000 0.250000
vt 0.375000 0.375000
vt 0.375000 0.437500
vt 0.375000 0.500000
vt 0.375000 0.875000
vt 0.375000 0.937500
vt 0.250000 0.500000
vt 0.312500 0.500000
vt 0.125000 0.562500
vt 0.125000 0.625000
vt 0.125000 0.500000
vt 0.187500 0.500000
vt 0.125000 0.687500
vt 0.125000 0.750000
vt 0.750000 0.500000
vt 0.812500 0.500000
vt 0.875000 0.500000
vt 0.687500 0.500000
vn -1.0000 0.0000 0.0000
vn 0.0000 0.0000 -1.0000
vn 1.0000 0.0000 0.0000
vn 0.0000 0.0000 1.0000
vn 0.0018 -1.0000 0.0018
vn -0.0004 1.0000 -0.0004
vn 0.7066 0.7076 0.0000
vn 0.4079 0.8169 -0.4079
vn 0.0000 0.7076 -0.7066
vn -0.7047 -0.7095 0.0016
vn -0.4037 -0.8210 -0.4037
vn 0.0000 -0.7063 -0.7079
vn 0.4088 -0.8159 -0.4088
vn 0.7079 -0.7063 0.0000
vn -0.0006 -1.0000 0.0006
vn -0.0029 -0.7115 -0.7027
vn -0.0041 -1.0000 -0.0041
vn -0.7027 -0.7115 -0.0029
vn -0.0022 -1.0000 0.0022
vn -0.0016 -0.7095 0.7047
vn -0.4058 -0.8189 0.4058
vn -0.4079 0.8169 -0.4079
vn -0.7066 0.7076 0.0000
vn 0.0000 1.0000 0.0000
vn 0.0000 0.7076 0.7066
vn 0.4079 0.8169 0.4079
vn -0.4079 0.8169 0.4079
vn -0.0003 0.7075 0.7067
vn 0.7052 -0.7090 0.0013
vn 0.4063 -0.8184 0.4063
vn 0.0013 -0.7090 0.7052
usemtl None
s off
f 86/1/1 26/2/1 4/3/1
f 85/4/2 27/5/2 6/6/2 36/7/2
f 84/8/3 30/9/3 5/10/3 38/11/3
f 83/12/4 32/13/4 2/14/4 25/15/4
f 82/16/5 71/17/5 31/18/5 73/19/5
f 81/20/6 33/21/6 2/22/6 32/23/6
f 80/24/7 40/25/7 18/26/7 39/27/7
f 79/28/8 41/29/8 19/30/8 42/31/8
f 78/32/9 26/33/9 9/34/9 43/35/9
f 77/36/10 44/37/10 17/38/10 74/39/10
f 76/40/11 45/41/11 20/42/11 46/43/11
f 75/44/12 29/45/12 14/46/12 47/47/12
f 74/48/4 48/49/4 8/50/4 1/51/4
f 73/52/4 49/53/4 21/54/4 50/55/4
f 72/56/4 39/57/4 18/58/4 51/59/4
f 71/60/3 52/61/3 16/62/3 31/63/3
f 70/64/3 53/65/3 22/66/3 54/67/3
f 69/68/3 37/69/3 15/70/3 55/71/3
f 68/72/2 56/73/2 13/74/2 28/75/2
f 67/76/2 57/77/2 23/78/2 58/79/2
f 66/80/2 35/81/2 12/82/2 59/83/2
f 65/84/1 60/85/1 10/86/1 3/87/1
f 64/88/1 61/89/1 24/90/1 62/91/1
f 33/92/1 9/93/1 63/94/1
f 61/89/1 33/95/1 63/94/1 24/90/1
f 8/96/1 25/97/1 33/95/1 61/89/1
f 25/97/1 2/98/1 33/95/1
f 64/88/1 62/91/1 7/99/1
f 1/100/1 8/96/1 61/89/1 64/88/1
f 7/99/1 62/91/1 65/101/1
f 62/91/1 24/90/1 60/85/1 65/84/1
f 57/77/2 66/80/2 59/83/2 23/78/2
f 10/86/2 4/3/2 66/80/2 57/77/2
f 4/102/2 35/81/2 66/80/2
f 67/76/2 58/79/2 11/103/2
f 3/87/2 10/86/2 57/77/2 67/76/2
f 34/104/4 68/72/4 28/105/4
f 11/103/2 58/79/2 68/72/2 34/104/2
f 58/79/2 23/78/2 56/73/2 68/72/2
f 53/65/3 69/68/3 55/71/3 22/66/3
f 13/74/3 36/7/3 69/68/3 53/65/3
f 36/7/3 6/6/3 37/69/3 69/68/3
f 29/45/3 70/64/3 54/67/3 14/46/3
f 28/75/1 70/64/1 29/45/1
f 28/75/3 13/74/3 53/65/3 70/64/3
f 14/46/3 54/67/3 71/17/3
f 54/67/3 22/66/3 52/61/3 71/60/3
f 49/53/4 72/56/4 51/59/4 21/54/4
f 16/62/4 38/11/4 72/56/4 49/53/4
f 38/11/4 5/10/4 39/57/4 72/56/4
f 73/52/4 50/55/4 17/106/4
f 31/63/4 16/62/4 49/53/4 73/52/4
f 17/106/4 50/55/4 74/107/4
f 50/55/4 21/54/4 48/49/4 74/48/4
f 45/41/13 75/44/13 47/47/13 20/42/13
f 11/108/14 34/109/14 75/44/14 45/41/14
f 34/109/15 28/105/15 29/45/15 75/44/15
f 65/110/16 76/40/16 46/43/16 7/111/16
f 3/112/17 67/113/17 76/40/17 65/110/17
f 67/113/18 11/108/18 45/41/18 76/40/18
f 64/114/19 77/36/19 74/39/19 1/115/19
f 7/111/20 46/43/20 77/36/20 64/114/20
f 46/43/21 20/42/21 44/37/21 77/36/21
f 41/29/22 78/32/22 43/35/22 19/30/22
f 12/116/23 35/117/23 78/32/23 41/29/23
f 35/117/6 4/118/6 26/33/6 78/32/6
f 37/69/9 79/28/9 42/31/9 15/70/9
f 6/6/24 27/119/24 79/28/24 37/69/24
f 27/119/7 12/116/7 41/29/7 79/28/7
f 30/9/24 80/24/24 39/27/24 5/10/24
f 15/70/25 42/31/25 80/24/25 30/9/25
f 42/31/26 19/30/26 40/25/26 80/24/26
f 40/25/23 81/20/23 32/23/23 18/26/23
f 19/30/27 43/35/27 81/20/27 40/25/27
f 43/35/28 9/34/28 33/21/28 81/20/28
f 44/37/29 82/16/29 73/19/29 17/38/29
f 20/42/30 47/47/30 82/16/30 44/37/30
f 47/47/31 14/46/31 71/17/31 82/16/31
f 48/49/4 83/12/4 25/15/4 8/50/4
f 21/54/4 51/59/4 83/12/4 48/49/4
f 51/59/4 18/58/4 32/13/4 83/12/4
f 52/61/3 84/8/3 38/11/3 16/62/3
f 22/66/3 55/71/3 84/8/3 52/61/3
f 55/71/3 15/70/3 30/9/3 84/8/3
f 56/73/2 85/4/2 36/7/2 13/74/2
f 23/78/2 59/83/2 85/4/2 56/73/2
f 59/83/2 12/82/2 27/5/2 85/4/2
f 60/85/1 86/1/1 4/3/1 10/86/1
f 24/90/1 63/94/1 86/1/1 60/85/1
f 63/94/1 9/93/1 26/2/1 86/1/1
