# Blender v2.90.1 OBJ File: 'helicopter.blend'
# www.blender.org
mtllib helicopter_tail.mtl
o Cube.004_Cube.006
v 0.175506 0.063664 0.868937
v 0.253095 0.064281 0.868937
v 0.175506 0.063664 -0.011101
v 0.253095 0.064281 -0.011101
v 0.176299 -0.036178 0.868937
v 0.253889 -0.035561 0.868937
v 0.176299 -0.036178 -0.011101
v 0.253889 -0.035561 -0.011101
v 0.170332 0.714822 -0.540963
v 0.247922 0.715438 -0.540963
v 0.176135 -0.015482 -0.049954
v 0.253724 -0.014866 -0.049954
v 0.169890 0.770528 -0.458103
v 0.247479 0.771144 -0.458103
v 0.175692 0.040224 0.032905
v 0.253282 0.040840 0.032905
v 0.182515 -0.818497 -0.294724
v 0.260105 -0.817881 -0.294724
v 0.176040 -0.003565 0.037408
v 0.253630 -0.002949 0.037408
v 0.182216 -0.780816 -0.387185
v 0.259805 -0.780200 -0.387185
v 0.175741 0.034115 -0.055054
v 0.253330 0.034732 -0.055054
vt 0.375000 0.000000
vt 0.375000 0.250000
vt 0.625000 0.250000
vt 0.625000 0.000000
vt 0.375000 0.500000
vt 0.625000 0.500000
vt 0.375000 0.750000
vt 0.625000 0.750000
vt 0.375000 1.000000
vt 0.625000 1.000000
vt 0.125000 0.500000
vt 0.125000 0.750000
vt 0.875000 0.750000
vt 0.875000 0.500000
vt 0.375000 0.000000
vt 0.375000 0.250000
vt 0.625000 0.250000
vt 0.625000 0.000000
vt 0.375000 0.500000
vt 0.625000 0.500000
vt 0.375000 0.750000
vt 0.625000 0.750000
vt 0.375000 1.000000
vt 0.625000 1.000000
vt 0.125000 0.500000
vt 0.125000 0.750000
vt 0.875000 0.750000
vt 0.875000 0.500000
vt 0.375000 0.000000
vt 0.625000 0.000000
vt 0.625000 0.250000
vt 0.375000 0.250000
vt 0.625000 0.500000
vt 0.375000 0.500000
vt 0.625000 0.750000
vt 0.375000 0.750000
vt 0.625000 1.000000
vt 0.375000 1.000000
vt 0.125000 0.500000
vt 0.125000 0.750000
vt 0.875000 0.500000
vt 0.875000 0.750000
vn 0.0079 -1.0000 0.0000
vn 0.0000 0.0000 1.0000
vn -0.0079 1.0000 0.0000
vn 0.0000 0.0000 -1.0000
vn 1.0000 0.0079 0.0000
vn -1.0000 -0.0079 0.0000
vn -0.0044 0.5579 0.8299
vn -0.0066 0.8299 -0.5579
vn 0.0044 -0.5579 -0.8299
vn 0.0066 -0.8299 0.5579
vn 0.0030 -0.3774 0.9260
vn -0.0074 0.9260 0.3774
vn -0.0030 0.3774 -0.9260
vn 0.0074 -0.9260 -0.3774
usemtl None
s off
f 1/1/1 3/2/1 4/3/1 2/4/1
f 3/2/2 7/5/2 8/6/2 4/3/2
f 7/5/3 5/7/3 6/8/3 8/6/3
f 5/7/4 1/9/4 2/10/4 6/8/4
f 3/11/5 1/12/5 5/7/5 7/5/5
f 8/6/6 6/8/6 2/13/6 4/14/6
f 9/15/7 11/16/7 12/17/7 10/18/7
f 11/16/8 15/19/8 16/20/8 12/17/8
f 15/19/9 13/21/9 14/22/9 16/20/9
f 13/21/10 9/23/10 10/24/10 14/22/10
f 11/25/5 9/26/5 13/21/5 15/19/5
f 16/20/6 14/22/6 10/27/6 12/28/6
f 17/29/11 18/30/11 20/31/11 19/32/11
f 19/32/12 20/31/12 24/33/12 23/34/12
f 23/34/13 24/33/13 22/35/13 21/36/13
f 21/36/14 22/35/14 18/37/14 17/38/14
f 19/39/6 23/34/6 21/36/6 17/40/6
f 24/33/5 20/41/5 18/42/5 22/35/5
